<svg width="140" height="183" viewBox="0 0 140 183" fill="none" xmlns="http://www.w3.org/2000/svg">
<path d="M90.2886 152.034C86.2503 144.918 80.241 140.032 74.179 138.184C73.6313 138.024 72.8596 138.34 72.945 138.863C73.8188 145.724 72.5872 152.636 76.6282 159.763C80.6665 166.879 86.6758 171.765 92.7379 173.613C93.2856 173.772 93.8619 173.465 93.9719 172.933C95.465 166.792 94.3132 159.099 90.2886 152.034ZM72.0902 167.363C63.9126 167.042 58.273 171.314 51.7376 173.718C51.2288 173.909 51.2984 174.742 51.6699 175.145C56.1146 179.642 63.2466 182.655 71.4783 182.973C79.6559 183.294 87.079 180.761 91.8309 176.618C92.2393 176.257 92.2701 175.594 91.8986 175.191C87.4676 170.745 80.2705 167.695 72.0902 167.363ZM64.2484 158.1C64.7285 158.375 65.2782 158.173 65.5562 157.695C68.1023 152.287 68.5527 144.918 66.1335 137.576C63.7525 130.212 59.075 124.479 53.8045 121.611C53.3245 121.336 52.5555 121.498 52.4967 122.016C51.9877 128.592 49.5002 134.792 51.9195 142.135C54.3004 149.498 58.9677 155.235 64.2484 158.1ZM62.7753 160.754C63.2595 160.471 63.3968 159.878 63.0868 159.459C59.8221 154.449 53.7309 150.24 46.2056 148.38C38.629 146.534 32.5853 149.461 26.0526 150.403C25.5165 150.492 25.4311 151.279 25.7411 151.698C29.0058 156.707 35.097 160.916 42.6223 162.776C50.1982 164.579 57.5389 163.662 62.7753 160.754ZM41.1013 137.084C45.3954 133.118 48.4321 126.673 48.9362 119.137C49.4542 111.652 47.3559 104.769 43.6938 100.325C43.3838 99.9058 42.6306 99.7581 42.4038 100.223C39.5927 105.953 35.0731 110.634 34.5689 118.17C34.0509 125.655 36.1492 132.537 39.8113 136.982C40.1186 137.391 40.7441 137.431 41.1013 137.084ZM38.3151 137.83C37.1974 132.148 33.2615 126.15 27.1723 121.744C21.032 117.351 14.5274 117.783 8.30631 116.283C7.8235 116.161 7.44037 116.821 7.52571 117.344C8.64334 123.026 12.5793 129.024 18.6685 133.43C24.8088 137.822 31.76 139.629 37.5345 138.89C38.0706 138.802 38.4106 138.35 38.3151 137.83ZM25.8867 109.416C26.1045 109.86 26.6522 110.019 27.0851 109.75C31.8504 106.968 36.0245 101.572 38.0744 94.681C40.124 87.7904 39.5786 81.0486 37.0973 76.135C36.8795 75.6912 36.1912 75.417 35.8989 75.8009C32.1079 80.538 26.9595 83.9795 24.9096 90.8701C22.8566 97.7071 23.4027 104.492 25.8867 109.416ZM23.3941 110.684C23.8523 110.714 24.3119 110.34 24.3406 109.874C24.4754 104.358 22.0692 98.0055 17.3055 92.6878C12.5419 87.3701 6.41996 86.4441 0.951886 83.7819C0.485483 83.5575 0.0340482 84.1259 0.00536689 84.592C-0.129435 90.1076 2.2768 96.4603 7.04044 101.778C11.8143 107.093 17.9063 110.199 23.3941 110.684ZM35.4536 69.228C38.7734 63.307 39.6833 56.8744 38.4291 51.8288C38.3035 51.3603 37.7442 50.9533 37.4171 51.2483C32.9194 54.8648 27.4186 56.9926 24.0987 62.9133C20.7789 68.8342 19.869 75.2668 21.1231 80.3125C21.2487 80.781 21.7151 81.0054 22.1351 80.893C27.1736 79.293 32.1337 75.1487 35.4536 69.228ZM18.5727 80.9956C19.0145 81.1283 19.4987 80.8459 19.582 80.4197C20.8579 75.3517 19.9452 68.9594 16.6456 63.0424C13.325 57.0874 7.85297 54.9829 3.34748 51.3647C2.9596 51.0646 2.42147 51.5143 2.33815 51.9405C1.06228 57.0085 1.97491 63.4009 5.27451 69.3179C8.59241 75.2627 13.5487 79.4152 18.5727 80.9956ZM39.398 25.0652C34.9564 28.3174 29.6659 30.0831 26.275 35.5755C22.8916 41.0549 21.7263 47.1085 22.7335 51.9691C22.7943 52.4003 23.2743 52.6757 23.7045 52.5605C28.5189 51.2716 33.4366 47.5426 36.8275 42.0502C40.2109 36.5708 41.3762 30.5172 40.369 25.6567C40.2332 25.1909 39.7251 24.7703 39.398 25.0652ZM20.2478 52.5256C20.6384 52.6721 21.1362 52.4405 21.2196 52.0144C22.675 47.2476 22.0442 41.1291 19.1792 35.3579C16.3277 29.6375 11.2211 27.3806 7.06794 23.7661C6.73129 23.4524 6.17949 23.8512 6.09617 24.2774C4.6407 29.0442 5.20648 35.1256 8.12293 40.883C11.029 46.6433 15.5919 50.8031 20.2478 52.5256ZM23.4317 32.5054C28.5288 30.3875 33.3115 25.5815 36.2208 19.0719C39.13 12.5623 39.4331 5.78997 37.6549 0.633691C37.4781 0.178917 36.8676 -0.214331 36.5104 0.13237C32.122 4.31989 26.6306 7.05625 23.7213 13.5659C20.8257 20.1263 20.509 26.8478 22.352 32.0415C22.4674 32.5127 22.9851 32.7232 23.4317 32.5054ZM137.093 174.508C136.727 174.66 136.318 174.813 135.953 174.966C135.546 175.129 135.178 175.271 134.748 175.387C133.912 175.665 133.061 175.893 132.222 176.161C131.372 176.389 130.522 176.616 129.658 176.793C128.794 176.97 127.933 177.157 127.058 177.293C123.57 177.877 120.016 178.218 116.44 178.269C115.54 178.313 114.665 178.242 113.752 178.235L112.421 178.188C111.963 178.158 111.546 178.116 111.08 178.099L108.395 177.912L105.723 177.569C103.91 177.399 102.167 176.96 100.381 176.685C98.6107 176.307 96.8543 175.817 95.0844 175.44C96.8141 176.035 98.5037 176.685 100.22 177.23C101.966 177.723 103.693 178.309 105.503 178.632L108.187 179.223L110.883 179.658C111.353 179.729 111.784 179.821 112.263 179.889L113.618 180.029C114.555 180.127 115.445 180.249 116.368 180.296C120.032 180.571 123.736 180.584 127.447 180.299C128.398 180.241 129.286 180.156 130.202 180.009C131.141 179.911 132.057 179.764 132.983 179.614C133.898 179.424 134.814 179.277 135.767 179.065C136.239 178.939 136.682 178.875 137.154 178.749C137.625 178.622 138.055 178.507 138.605 178.305L138.789 178.256C139.826 177.782 140.268 176.605 139.835 175.564C139.322 174.511 138.088 174.045 137.093 174.508Z" fill="#E5E5EA"/>
</svg>
