<svg width="140" height="183" viewBox="0 0 140 183" fill="none" xmlns="http://www.w3.org/2000/svg">
<path d="M49.7114 152.034C53.7497 144.918 59.759 140.032 65.821 138.184C66.3687 138.024 67.1404 138.34 67.055 138.863C66.1812 145.724 67.4128 152.636 63.3718 159.763C59.3335 166.879 53.3242 171.765 47.2621 173.613C46.7145 173.772 46.1381 173.465 46.0281 172.933C44.535 166.792 45.6868 159.099 49.7114 152.034ZM67.9098 167.363C76.0874 167.042 81.727 171.314 88.2624 173.718C88.7712 173.909 88.7016 174.742 88.3301 175.145C83.8854 179.642 76.7534 182.655 68.5217 182.973C60.3441 183.294 52.921 180.761 48.1691 176.618C47.7607 176.257 47.7299 175.594 48.1014 175.191C52.5324 170.745 59.7295 167.695 67.9098 167.363ZM75.7516 158.1C75.2715 158.375 74.7218 158.173 74.4438 157.695C71.8977 152.287 71.4473 144.918 73.8665 137.576C76.2475 130.212 80.925 124.479 86.1955 121.611C86.6756 121.336 87.4445 121.498 87.5033 122.016C88.0123 128.592 90.4998 134.792 88.0805 142.135C85.6996 149.498 81.0323 155.235 75.7516 158.1ZM77.2247 160.754C76.7405 160.471 76.6032 159.878 76.9132 159.459C80.1779 154.449 86.2691 150.24 93.7944 148.38C101.371 146.534 107.415 149.461 113.947 150.403C114.483 150.492 114.569 151.279 114.259 151.698C110.994 156.707 104.903 160.916 97.3777 162.776C89.8018 164.579 82.4611 163.662 77.2247 160.754ZM98.8987 137.084C94.6046 133.118 91.5679 126.673 91.0638 119.137C90.5458 111.652 92.6441 104.769 96.3062 100.325C96.6162 99.9058 97.3695 99.7581 97.5962 100.223C100.407 105.953 104.927 110.634 105.431 118.17C105.949 125.655 103.851 132.537 100.189 136.982C99.8814 137.391 99.2559 137.431 98.8987 137.084ZM101.685 137.83C102.803 132.148 106.739 126.15 112.828 121.744C118.968 117.351 125.473 117.783 131.694 116.283C132.176 116.161 132.56 116.821 132.474 117.344C131.357 123.026 127.421 129.024 121.332 133.43C115.191 137.822 108.24 139.629 102.466 138.89C101.929 138.802 101.589 138.35 101.685 137.83ZM114.113 109.416C113.896 109.86 113.348 110.019 112.915 109.75C108.15 106.968 103.976 101.572 101.926 94.681C99.876 87.7904 100.421 81.0486 102.903 76.135C103.12 75.6912 103.809 75.417 104.101 75.8009C107.892 80.538 113.04 83.9795 115.09 90.8701C117.143 97.7071 116.597 104.492 114.113 109.416ZM116.606 110.684C116.148 110.714 115.688 110.34 115.659 109.874C115.525 104.358 117.931 98.0055 122.694 92.6878C127.458 87.3701 133.58 86.4441 139.048 83.7819C139.515 83.5575 139.966 84.1259 139.995 84.592C140.129 90.1076 137.723 96.4603 132.96 101.778C128.186 107.093 122.094 110.199 116.606 110.684ZM104.546 69.228C101.227 63.307 100.317 56.8744 101.571 51.8288C101.697 51.3603 102.256 50.9533 102.583 51.2483C107.081 54.8648 112.581 56.9926 115.901 62.9133C119.221 68.8342 120.131 75.2668 118.877 80.3125C118.751 80.781 118.285 81.0054 117.865 80.893C112.826 79.293 107.866 75.1487 104.546 69.228ZM121.427 80.9956C120.986 81.1283 120.501 80.8459 120.418 80.4197C119.142 75.3517 120.055 68.9594 123.354 63.0424C126.675 57.0874 132.147 54.9829 136.653 51.3647C137.04 51.0646 137.579 51.5143 137.662 51.9405C138.938 57.0085 138.025 63.4009 134.725 69.3179C131.408 75.2627 126.451 79.4152 121.427 80.9956ZM100.602 25.0652C105.044 28.3174 110.334 30.0831 113.725 35.5755C117.108 41.0549 118.274 47.1085 117.267 51.9691C117.206 52.4003 116.726 52.6757 116.295 52.5605C111.481 51.2716 106.563 47.5426 103.172 42.0502C99.7891 36.5708 98.6238 30.5172 99.631 25.6567C99.7668 25.1909 100.275 24.7703 100.602 25.0652ZM119.752 52.5256C119.362 52.6721 118.864 52.4405 118.78 52.0144C117.325 47.2476 117.956 41.1291 120.821 35.3579C123.672 29.6375 128.779 27.3806 132.932 23.7661C133.269 23.4524 133.821 23.8512 133.904 24.2774C135.359 29.0442 134.794 35.1256 131.877 40.883C128.971 46.6433 124.408 50.8031 119.752 52.5256ZM116.568 32.5054C111.471 30.3875 106.689 25.5815 103.779 19.0719C100.87 12.5623 100.567 5.78997 102.345 0.633691C102.522 0.178917 103.132 -0.214331 103.49 0.13237C107.878 4.31989 113.369 7.05625 116.279 13.5659C119.174 20.1263 119.491 26.8478 117.648 32.0415C117.533 32.5127 117.015 32.7232 116.568 32.5054ZM2.90746 174.508C3.27281 174.66 3.68188 174.813 4.04723 174.966C4.45357 175.129 4.82165 175.271 5.25187 175.387C6.08843 175.665 6.93864 175.893 7.77793 176.161C8.62815 176.389 9.47836 176.616 10.3422 176.793C11.2061 176.97 12.0672 177.157 12.942 177.293C16.4303 177.877 19.9842 178.218 23.5604 178.269C24.4598 178.313 25.3352 178.242 26.2482 178.235L27.5785 178.188C28.0367 178.158 28.454 178.116 28.9197 178.099L31.6048 177.912L34.277 177.569C36.0901 177.399 37.8327 176.96 39.6192 176.685C41.3893 176.307 43.1457 175.817 44.9156 175.44C43.1859 176.035 41.4963 176.685 39.7805 177.23C38.0343 177.723 36.3074 178.309 34.497 178.632L31.8132 179.223L29.1165 179.658C28.6474 179.729 28.2165 179.821 27.7371 179.889L26.3822 180.029C25.4446 180.127 24.5555 180.249 23.6316 180.296C19.968 180.571 16.2644 180.584 12.553 180.299C11.6024 180.241 10.714 180.156 9.79823 180.009C8.85857 179.911 7.94282 179.764 7.01691 179.614C6.10183 179.424 5.18607 179.277 4.23265 179.065C3.76145 178.939 3.31757 178.875 2.84636 178.749C2.37515 178.622 1.94493 178.507 1.3952 178.305L1.21082 178.256C0.174171 177.782 -0.267707 176.605 0.165179 175.564C0.677984 174.511 1.91178 174.045 2.90746 174.508Z" fill="#E5E5EA"/>
</svg>
