<svg width="125" height="23" viewBox="0 0 125 23" fill="none" xmlns="http://www.w3.org/2000/svg">
<path d="M7.91875 22.5967H3.20863V11.4831H0V7.86475H3.2085V5.29003C3.2085 2.23898 4.62762 0.0507812 9.325 0.0507812C10.3185 0.0507812 11.8783 0.240318 11.8783 0.240318V3.60016H10.24C8.57075 3.60016 7.919 4.08075 7.919 5.4094V7.86475H11.8158L11.4688 11.4831H7.91888L7.91875 22.5967ZM18.7262 7.57559C18.6576 7.57559 18.587 7.57796 18.5171 7.57961C14.1496 7.57961 12.1514 10.6891 12.1514 15.1031C12.1514 20.6636 14.7434 22.889 18.5513 22.889C20.7299 22.889 22.1612 22.0211 23.0312 20.4014V22.5982H27.5112V7.86629H23.0312V10.1319C22.3209 8.67424 20.8495 7.59286 18.7262 7.57559ZM19.8654 11.0567C21.6998 11.0567 22.8008 12.2678 22.8008 14.3277L22.805 16.4317C22.805 17.8201 21.8956 19.4444 19.8654 19.4444C16.7441 19.4444 16.8275 16.2544 16.8275 15.192C16.8275 11.6181 18.4905 11.0567 19.8654 11.0567ZM29.3205 15.233C29.3205 13.4428 29.23 7.58517 37.293 7.58517C40.5296 7.58517 41.8811 8.55924 41.8811 8.55924L40.7949 11.7481C40.7949 11.7481 39.4451 11.0446 37.6864 11.0446C35.4338 11.0446 33.9964 12.2807 33.9964 14.4554L33.9989 16.0147C33.9989 18.1044 35.3858 19.4993 37.691 19.4993C39.2933 19.4993 40.77 18.7892 40.77 18.7892L41.8535 21.9114C41.8535 21.9114 40.6177 22.8917 37.3156 22.8917C29.6384 22.8917 29.3206 17.6362 29.3206 15.233H29.3205ZM68.149 7.57961C72.5166 7.57961 74.5464 10.6891 74.5464 15.1031C74.5464 20.6636 71.9543 22.889 68.1464 22.889C65.9678 22.889 64.3573 22.0212 63.4873 20.4014V22.5982L59.0636 22.5966V0.498713L63.7604 0.111002V9.93226C64.4382 8.21401 66.6659 7.57961 68.149 7.57961ZM66.8323 11.0567C64.9979 11.0567 63.7604 12.2678 63.7604 14.3277L63.756 16.4317C63.7533 17.8201 64.613 19.4444 66.8323 19.4444C69.9535 19.4444 69.8701 16.2544 69.8701 15.192C69.8701 11.6181 68.2073 11.0567 66.8323 11.0567ZM50.0304 7.5918C45.0766 7.5918 42.4614 10.1482 42.4614 14.6912V15.5352C42.4614 21.4316 46.134 22.9496 50.5125 22.9496C54.7684 22.9496 56.6948 21.8229 56.6948 21.8229L55.8159 18.8225C55.8159 18.8225 53.5499 19.7351 51.0756 19.7351C48.5106 19.7351 47.4075 19.1163 47.1247 16.7832H57.0703V14.3761C57.0703 9.44813 54.1351 7.59168 50.0303 7.59168L50.0304 7.5918ZM50.1497 10.5962C51.8645 10.5962 52.9756 11.5915 52.9146 13.8996H47.1334C47.2336 11.4703 48.4319 10.5962 50.1497 10.5962ZM83.9115 7.57157C78.8244 7.57157 76.1462 10.285 76.1462 15.1475C76.1462 21.8191 80.7627 22.8931 83.92 22.8931C88.542 22.8931 91.617 20.5378 91.617 15.2081C91.617 9.66074 88.1595 7.57157 83.9115 7.57157ZM83.8475 11.0688C86.0844 11.0688 86.9707 12.6533 86.9707 14.457V16.0077C86.9707 18.1927 85.7305 19.4566 83.839 19.4566C82.07 19.4566 80.8268 18.2744 80.8268 16.0077V14.457C80.8268 12.0396 82.3061 11.0688 83.8475 11.0688ZM100.974 7.57157C95.8866 7.57157 93.2085 10.285 93.2085 15.1475C93.2085 21.8191 97.825 22.8931 100.982 22.8931C105.604 22.8931 108.679 20.5378 108.679 15.2081C108.679 9.66074 105.222 7.57157 100.974 7.57157ZM100.91 11.0688C103.147 11.0688 104.033 12.6533 104.033 14.457V16.0077C104.033 18.1927 102.793 19.4566 100.901 19.4566C99.1323 19.4566 97.889 18.2744 97.889 16.0077V14.457C97.889 12.0396 99.3684 11.0688 100.91 11.0688ZM110.454 22.5967V0.498713L115.164 0.111002V14.9225L119.838 7.86475H124.812L119.937 15.1745L125 22.5967H120.011L115.164 15.3898V22.5967H110.454Z" fill="#1877F2"/>
</svg>
