<svg width="111" height="25" viewBox="0 0 111 25" fill="none" xmlns="http://www.w3.org/2000/svg">
<path fill-rule="evenodd" clip-rule="evenodd" d="M34.642 3.90344C34.2368 2.36928 33.0379 1.15917 31.5127 0.744393C28.7549 0 17.6897 0 17.6897 0C17.6897 0 6.63016 0 3.86666 0.744393C2.3471 1.15344 1.14825 2.3637 0.737379 3.90344C-6.9351e-08 6.6875 0 12.4999 0 12.4999C0 12.4999 -6.9351e-08 18.3125 0.737379 21.0966C1.14257 22.6307 2.34143 23.8408 3.86666 24.2556C6.63016 25 17.6897 25 17.6897 25C17.6897 25 28.7549 25 31.5127 24.2556C33.0324 23.8466 34.2311 22.6363 34.642 21.0966C35.3793 18.3125 35.3794 12.5001 35.3794 12.5001C35.3794 12.5001 35.3793 6.6875 34.642 3.90344Z" fill="#FF0000"/>
<path fill-rule="evenodd" clip-rule="evenodd" d="M14.1552 17.8585L23.3461 12.5004L14.1552 7.14258V17.8585Z" fill="white"/>
<path fill-rule="evenodd" clip-rule="evenodd" d="M51.3524 22.7448C50.6545 22.2676 50.1536 21.5289 49.8609 20.5233C49.5682 19.5176 49.4162 18.1824 49.4162 16.5118V14.2392C49.4162 12.5517 49.585 11.1995 49.9228 10.1766C50.2605 9.15395 50.7896 8.40971 51.5043 7.94369C52.2191 7.47782 53.1591 7.23923 54.324 7.23923C55.4723 7.23923 56.3897 7.47782 57.0819 7.95514C57.7742 8.43232 58.2807 9.17671 58.6016 10.188C58.9224 11.1995 59.0801 12.5517 59.0801 14.2334V16.5063C59.0801 18.1767 58.9224 19.5176 58.6128 20.5289C58.3033 21.5402 57.7969 22.2846 57.0932 22.7505C56.3953 23.2164 55.4441 23.4552 54.2452 23.4552C53.0183 23.4607 52.0502 23.2221 51.3524 22.7448ZM55.2752 20.2903C55.4666 19.7789 55.568 18.9437 55.568 17.7904V12.9097C55.568 11.7846 55.4723 10.9665 55.2752 10.4438C55.084 9.92668 54.7406 9.66534 54.2509 9.66534C53.7782 9.66534 53.446 9.92668 53.2491 10.4438C53.0577 10.9608 52.9565 11.7846 52.9565 12.9097V17.7904C52.9565 18.9494 53.0465 19.7847 53.2322 20.2903C53.418 20.8017 53.7557 21.0573 54.2454 21.0573C54.7406 21.0573 55.0783 20.8017 55.2752 20.2903ZM105.085 16.5516V17.3415C105.085 18.3471 105.114 19.0971 105.176 19.6028C105.232 20.1028 105.356 20.4721 105.541 20.6995C105.727 20.9267 106.014 21.046 106.402 21.046C106.926 21.046 107.286 20.8415 107.477 20.4323C107.669 20.0233 107.776 19.3414 107.793 18.3869L110.804 18.5631C110.821 18.6994 110.826 18.8869 110.826 19.1254C110.826 20.5744 110.432 21.6539 109.65 22.3698C108.868 23.0857 107.759 23.4437 106.324 23.4437C104.601 23.4437 103.397 22.8982 102.705 21.8073C102.012 20.7164 101.669 19.0346 101.669 16.7506V14.0176C101.669 11.6654 102.029 9.95502 102.744 8.87C103.459 7.79041 104.686 7.25054 106.425 7.25054C107.624 7.25054 108.541 7.47224 109.183 7.91535C109.824 8.35847 110.275 9.04589 110.539 9.9835C110.798 10.921 110.933 12.2165 110.933 13.8642V16.5461H105.085V16.5516ZM105.53 9.96074C105.355 10.1824 105.237 10.546 105.175 11.0461C105.113 11.546 105.085 12.3131 105.085 13.33V14.4551H107.641V13.33C107.641 12.3243 107.607 11.563 107.539 11.0461C107.472 10.529 107.348 10.1597 107.173 9.94944C106.999 9.73919 106.723 9.63127 106.352 9.63127C105.98 9.62555 105.705 9.73919 105.53 9.96074ZM42.8537 16.2562L38.8802 1.7733H42.3471L43.7374 8.33585C44.0919 9.95517 44.3508 11.3302 44.5197 12.4722H44.6209C44.7391 11.6539 44.998 10.2846 45.4034 8.35846L46.8441 1.76758H50.3111L46.2926 16.2562V23.2051H42.8537V16.2562ZM70.3534 7.54609V23.1993H67.6236L67.3197 21.2846H67.2465C66.5036 22.7335 65.3892 23.4551 63.909 23.4551C62.8791 23.4551 62.1192 23.1142 61.6296 22.4323C61.1399 21.7505 60.8979 20.6881 60.8979 19.2392V7.54609H64.3875V19.0403C64.3875 19.7392 64.4606 20.2392 64.6126 20.5346C64.7646 20.8301 65.0178 20.9835 65.3724 20.9835C65.6763 20.9835 65.969 20.8925 66.2447 20.7051C66.5205 20.5176 66.7287 20.2789 66.8639 19.9892V7.54595L70.3534 7.54609ZM88.2625 7.54609V23.1993H85.5328L85.2288 21.2846H85.1557C84.4127 22.7335 83.2984 23.4551 81.8181 23.4551C80.7882 23.4551 80.0283 23.1142 79.5388 22.4323C79.0491 21.7505 78.8071 20.6881 78.8071 19.2392V7.54609H82.2966V19.0403C82.2966 19.7392 82.3698 20.2392 82.5217 20.5346C82.6736 20.8301 82.9269 20.9835 83.2815 20.9835C83.5855 20.9835 83.8781 20.8925 84.1539 20.7051C84.4296 20.5176 84.6379 20.2789 84.773 19.9892V7.54595L88.2625 7.54609Z" fill="#282828"/>
<path fill-rule="evenodd" clip-rule="evenodd" d="M79.8426 4.60846H76.3756V23.1992H72.9592V4.60846H69.4922V1.77331H79.8369V4.60846H79.8426ZM99.8173 10.0515C99.6035 9.06292 99.2658 8.34701 98.7929 7.9039C98.3203 7.46064 97.6731 7.23909 96.8455 7.23909C96.2041 7.23909 95.6074 7.42085 95.0502 7.79026C94.493 8.15379 94.0653 8.63684 93.7613 9.23338H93.7332V0.983398H90.3675V23.2049H93.2491L93.6037 21.722H93.677C93.9471 22.2504 94.3522 22.6652 94.8925 22.9719C95.4329 23.2788 96.0296 23.4322 96.688 23.4322C97.87 23.4322 98.7367 22.881 99.294 21.7844C99.851 20.6879 100.127 18.972 100.127 16.6368V14.1594C100.133 12.4095 100.026 11.04 99.8173 10.0515ZM96.6148 16.4378C96.6148 17.58 96.5698 18.4719 96.4742 19.1197C96.384 19.7675 96.2265 20.2276 96.0071 20.5004C95.7874 20.7731 95.4948 20.9095 95.1234 20.9095C94.8363 20.9095 94.5719 20.8414 94.3242 20.705C94.0822 20.5686 93.8796 20.364 93.7276 20.0912V11.1993C93.8458 10.7731 94.0484 10.4266 94.3355 10.154C94.6225 9.88117 94.932 9.74477 95.2697 9.74477C95.6243 9.74477 95.9 9.88675 96.0914 10.1651C96.2828 10.4436 96.4179 10.9208 96.4966 11.5799C96.5699 12.2447 96.6092 13.1879 96.6092 14.4151V16.4378H96.6148Z" fill="#282828"/>
</svg>
