<svg width="41" height="50" viewBox="0 0 41 50" fill="none" xmlns="http://www.w3.org/2000/svg">
<path d="M5.58997 31.3495L5.70982 31.6888C5.69447 31.6499 5.65062 31.5312 5.58997 31.3495ZM10.3329 23.6608C10.5434 21.8377 11.2581 20.817 12.605 19.7706C14.5322 18.3535 16.9395 19.1551 16.9395 19.1551V14.3996C17.5247 14.3839 18.1102 14.4202 18.689 14.508V20.6279C18.689 20.6279 16.2825 19.8263 14.3553 21.2442C13.0092 22.2898 12.293 23.3113 12.0832 25.1343C12.0767 26.1243 12.2542 27.4183 13.072 28.5372C12.8698 28.4288 12.6637 28.3052 12.4538 28.1665C10.6523 26.901 10.3242 25.0024 10.3329 23.6608ZM28.6288 5.60658C27.3031 4.08686 26.8018 2.55248 26.6205 1.47461H28.2882C28.2882 1.47461 27.9557 4.30082 30.3791 7.08014L30.4127 7.11751C29.7596 6.68771 29.1606 6.1804 28.6288 5.60658ZM36.6626 9.91514V15.912C36.6626 15.912 34.5345 15.8248 32.9596 15.4056C30.7606 14.8194 29.3472 13.9203 29.3472 13.9203C29.3472 13.9203 28.3708 13.2792 28.2919 13.2345V25.618C28.2919 26.3075 28.1114 28.0294 27.5611 29.4656C26.8427 31.3444 25.7341 32.5776 25.5302 32.8297C25.5302 32.8297 24.1818 34.4967 21.803 35.6192C19.6588 36.6319 17.7763 36.6063 17.2135 36.6319C17.2135 36.6319 13.9592 36.7667 11.0309 34.7758C10.3976 34.337 9.80652 33.84 9.26522 33.2913L9.27983 33.3023C12.2089 35.2932 15.4625 35.1583 15.4625 35.1583C16.026 35.1327 17.9085 35.1583 20.052 34.1457C22.4286 33.0231 23.7791 31.3561 23.7791 31.3561C23.9808 31.104 25.0946 29.8708 25.8101 27.9913C26.3589 26.5559 26.5409 24.8332 26.5409 24.1437V11.7617C26.6198 11.8071 27.5954 12.4483 27.5954 12.4483C27.5954 12.4483 29.0096 13.3481 31.2086 13.9335C32.7842 14.3527 34.9116 14.4399 34.9116 14.4399V9.74075C35.6395 9.91148 36.2599 9.95764 36.6626 9.91514Z" fill="#EE1D52"/>
<path d="M34.9123 9.74075V14.4384C34.9123 14.4384 32.785 14.3512 31.2093 13.9321C29.0103 13.3459 27.5962 12.4468 27.5962 12.4468C27.5962 12.4468 26.6206 11.8056 26.5416 11.7602V24.1451C26.5416 24.8346 26.3611 26.5573 25.8108 27.9928C25.0924 29.8723 23.9838 31.1055 23.7799 31.3576C23.7799 31.3576 22.4308 33.0246 20.0528 34.1471C17.9093 35.1598 16.0267 35.1342 15.4633 35.1598C15.4633 35.1598 12.2097 35.2946 9.28059 33.3037L9.26597 33.2928C8.95672 32.9795 8.66563 32.6487 8.39411 32.3021C7.45941 31.1099 6.88645 29.7001 6.74248 29.2978C6.74223 29.2961 6.74223 29.2944 6.74248 29.2927C6.51081 28.5936 6.02409 26.9149 6.0906 25.2889C6.20826 22.4202 7.17293 20.6594 7.42798 20.2183C8.10347 19.0154 8.98203 17.9392 10.0246 17.0375C10.9445 16.2594 11.9873 15.6403 13.11 15.2056C14.3238 14.6952 15.6235 14.4216 16.9395 14.3996V19.1551C16.9395 19.1551 14.5322 18.3564 12.6058 19.7706C11.2589 20.817 10.5442 21.8377 10.3337 23.6608C10.3249 25.0024 10.6531 26.901 12.453 28.1672C12.663 28.3064 12.8691 28.43 13.0713 28.538C13.3858 28.9656 13.7685 29.3382 14.2041 29.6407C15.9624 30.8051 17.4357 30.8864 19.3197 30.1302C20.576 29.6246 21.5217 28.4852 21.9602 27.2227C22.2357 26.4342 22.232 25.6407 22.232 24.82V1.47461H26.6169C26.7981 2.55248 27.2995 4.08686 28.6252 5.60658C29.157 6.1804 29.7559 6.68771 30.4091 7.11751C30.602 7.32634 31.5886 8.35878 32.8551 8.99261C33.51 9.32024 34.2003 9.57127 34.9123 9.74075Z" fill="black"/>
<path d="M4.99725 27.8369V27.8406L5.10541 28.1491C5.09299 28.1132 5.0528 28.004 4.99725 27.8369Z" fill="#69C9D0"/>
<path d="M13.11 15.2052C11.9872 15.6399 10.9445 16.259 10.0245 17.0371C8.98163 17.9408 8.10329 19.0193 7.42865 20.2245C7.1736 20.6642 6.20892 22.4265 6.09126 25.2952C6.02476 26.9211 6.51148 28.5999 6.74315 29.2989C6.7429 29.3006 6.7429 29.3023 6.74315 29.304C6.88931 29.7026 7.46007 31.1125 8.39478 32.3083C8.6663 32.6549 8.95739 32.9857 9.26664 33.299C8.2758 32.6119 7.39213 31.7812 6.64449 30.834C5.71782 29.6521 5.14632 28.2569 4.99724 27.8451C4.99706 27.8422 4.99706 27.8393 4.99724 27.8363V27.8312C4.76484 27.1329 4.27666 25.4534 4.34462 23.8253C4.46228 20.9566 5.42696 19.1958 5.68201 18.7546C6.35646 17.5493 7.23482 16.4708 8.27785 15.5672C9.19763 14.7888 10.2404 14.1697 11.3633 13.7353C12.0638 13.4439 12.7934 13.229 13.5397 13.0942C14.6644 12.8973 15.8131 12.8802 16.9431 13.0436V14.3992C15.6259 14.4208 14.3249 14.6944 13.11 15.2052Z" fill="#69C9D0"/>
<path d="M26.6205 1.47429H22.2357V24.8204C22.2357 25.6411 22.2357 26.4324 21.9638 27.2231C21.5209 28.4849 20.5789 29.6243 19.3234 30.1299C17.4386 30.889 15.9653 30.8048 14.2077 29.6404C13.7714 29.3392 13.3877 28.9678 13.072 28.5413C14.5695 29.3422 15.9098 29.3283 17.5702 28.66C18.825 28.1544 19.7684 27.015 20.2099 25.7525C20.4861 24.964 20.4825 24.1705 20.4825 23.3505V0H26.5372C26.5372 0 26.4693 0.580337 26.6205 1.47429ZM34.9123 8.44127V9.74043C34.2015 9.57068 33.5125 9.31966 32.8587 8.99229C31.5923 8.35847 30.6057 7.32602 30.4127 7.11719C30.6366 7.26457 30.8689 7.39865 31.1085 7.51874C32.6483 8.28959 34.1647 8.51967 34.9123 8.44127Z" fill="#69C9D0"/>
<path d="M26.7718 45.7446C26.7714 45.9117 26.796 46.078 26.8449 46.2377C26.8473 46.249 26.8507 46.2601 26.8551 46.2707C26.9719 46.6487 27.2063 46.9792 27.5241 47.2139C27.8418 47.4487 28.2261 47.5752 28.6208 47.575V49.4501C27.7102 49.4501 27.0583 49.4823 26.0629 48.8939C24.9346 48.2228 24.2988 46.9954 24.2988 45.7211C24.2988 44.4066 25.0106 43.0898 26.2171 42.4553C27.0941 41.9951 27.7584 41.9922 28.623 41.9922V43.8666C28.1324 43.8666 27.6619 44.062 27.3151 44.4098C26.9682 44.7576 26.7733 45.2293 26.7733 45.7211L26.7718 45.7446Z" fill="#69C9D0"/>
<path d="M30.4844 45.7446C30.4845 45.9117 30.4598 46.0779 30.4113 46.2377C30.4113 46.2487 30.4047 46.2597 30.4011 46.2707C30.2841 46.6486 30.0496 46.979 29.7319 47.2137C29.4143 47.4483 29.03 47.575 28.6354 47.575V49.4501C29.5453 49.4501 30.1979 49.4823 31.1896 48.8939C32.3217 48.2228 32.9589 46.9954 32.9589 45.7211C32.9589 44.4066 32.2471 43.0898 31.0405 42.4553C30.1636 41.9951 29.4993 41.9922 28.6354 41.9922V43.8666C29.1259 43.8668 29.5962 44.0622 29.9429 44.41C30.2896 44.7578 30.4844 45.2294 30.4844 45.7211V45.7446Z" fill="#EE1D52"/>
<path d="M0 40.292H6.84844L6.21555 42.181H4.42068V49.4111H2.21874V42.181H0V40.292ZM18.1497 40.292V42.181H20.3685V49.4111H22.5733V42.181H24.3653L24.9981 40.292H18.1497ZM8.33856 42.4448C8.54959 42.4447 8.75584 42.3818 8.93122 42.2641C9.10661 42.1464 9.24325 41.9793 9.32388 41.7837C9.4045 41.5882 9.42548 41.3731 9.38417 41.1656C9.34286 40.9581 9.24111 40.7675 9.09179 40.618C8.94246 40.4685 8.75228 40.3667 8.54527 40.3256C8.33827 40.2845 8.12375 40.3058 7.92884 40.3869C7.73393 40.468 7.56738 40.6052 7.45026 40.7812C7.33314 40.9573 7.2707 41.1641 7.27085 41.3757C7.27085 41.5162 7.29847 41.6554 7.35215 41.7852C7.40582 41.915 7.4845 42.0329 7.58366 42.1322C7.68283 42.2315 7.80054 42.3102 7.93008 42.3639C8.05961 42.4175 8.19842 42.445 8.33856 42.4448ZM7.27085 49.4111H9.43259V43.201H7.27085V49.4111ZM17.2099 42.3906H14.6813L12.502 44.5756V40.2993H10.3541L10.3476 49.4111H12.5159V47.0369L13.1904 46.4207L15.2952 49.4081H17.6133L14.5643 45.0395L17.2099 42.3906ZM37.9481 45.0409L40.5915 42.3906H38.0636L35.8836 44.5756V40.2993H33.7365L33.7262 49.4111H35.8953V47.0369L36.5764 46.4207L38.6811 49.4081H41L37.9481 45.0409ZM32.3896 45.7202C32.3896 47.7792 30.7021 49.4492 28.6208 49.4492C26.5394 49.4492 24.852 47.7792 24.852 45.7202C24.852 43.6612 26.5394 41.9912 28.6208 41.9912C30.7021 41.9912 32.3896 43.6619 32.3896 45.7217V45.7202ZM30.4697 45.7202C30.4697 45.3535 30.3613 44.9951 30.1581 44.6903C29.955 44.3854 29.6662 44.1478 29.3283 44.0075C28.9905 43.8671 28.6187 43.8304 28.2601 43.902C27.9014 43.9735 27.572 44.1501 27.3134 44.4093C27.0548 44.6686 26.8787 44.9989 26.8074 45.3585C26.736 45.7181 26.7726 46.0909 26.9126 46.4296C27.0525 46.7684 27.2895 47.0579 27.5936 47.2616C27.8976 47.4653 28.2551 47.574 28.6208 47.574C29.1109 47.5741 29.581 47.3789 29.9277 47.0316C30.2744 46.6842 30.4693 46.2131 30.4697 45.7217V45.7202Z" fill="black"/>
</svg>
