<svg width="43" height="50" viewBox="0 0 43 50" fill="none" xmlns="http://www.w3.org/2000/svg">
<path d="M16.2699 0.287822C13.1927 0.980392 10.357 2.28458 8.21008 3.98453C7.16346 4.82101 5.62484 6.42202 4.78397 7.56431C4.36353 8.13995 4.01466 8.63465 4.01466 8.66163C4.01466 8.69761 3.89836 8.88649 3.75524 9.09336C3.42425 9.57906 2.61022 11.216 2.18084 12.2594C1.87669 12.9969 1.69778 13.5276 1.16105 15.2905C0.92847 16.0371 0.481196 18.2947 0.338069 19.365C0.284396 19.8057 0.194942 20.4353 0.150214 20.7591C0.105487 21.0829 0.0428686 22.7829 0.0160322 24.5458C-0.0197496 27.5859 -0.0108042 27.8287 0.203887 29.5827C0.329124 30.59 0.516978 31.8582 0.615378 32.4069C0.803233 33.4233 1.41153 35.7888 1.662 36.4454C3.07538 40.2051 4.38142 42.3637 6.60884 44.6034C8.22797 46.2403 9.52506 47.1668 11.5736 48.1561C12.987 48.8487 14.7671 49.4513 16.2789 49.7661L17.3971 50L22.3171 49.964C27.2192 49.9281 27.2281 49.928 28.1227 49.7032C31.6919 48.7948 34.3935 47.2657 36.8892 44.7383C38.3921 43.2182 39.4298 41.6352 40.1364 39.7913C40.7805 38.1184 40.9505 37.2729 41.0221 35.42C41.2367 29.9604 38.6783 25.6971 33.7494 23.2776C33.3468 23.0797 32.998 22.8548 32.9711 22.7829C32.9353 22.7109 32.8906 22.3421 32.8638 21.9554C32.7743 20.8491 32.4255 19.2661 32.014 18.1328C31.1284 15.6863 29.3572 13.6445 27.2729 12.6462C25.8863 11.9896 24.8665 11.7197 23.1401 11.5848C21.512 11.4499 20.0628 11.5848 18.4169 12.0166C17.7638 12.1874 16.4667 12.8171 15.6974 13.3297C14.5614 14.0853 12.8707 15.8392 12.8707 16.2439C12.8707 16.3069 15.7779 18.3666 16.2431 18.6364C16.2968 18.6634 16.6725 18.3576 17.1377 17.8989C18.1306 16.9095 18.7031 16.5857 20.2507 16.163C20.9484 15.9651 23.2206 15.9921 24.0078 16.199C26.3783 16.8286 27.6933 18.2677 28.3016 20.912C28.4 21.3258 28.4 21.4067 28.2837 21.4517C28.2121 21.4787 27.7112 21.4427 27.1566 21.3797C25.8953 21.2178 21.9682 21.2178 20.9663 21.3708C17.9338 21.8475 15.6617 22.9808 14.0604 24.8336C11.9314 27.2891 11.6451 31.2017 13.3806 34.0889C13.8547 34.8804 14.9639 36.0586 15.6795 36.5354C17.7728 37.9295 20.3133 38.5411 22.9701 38.2983C27.9169 37.8395 31.1284 34.9074 32.3718 29.7086C32.4791 29.2679 32.5865 28.7102 32.6133 28.4763C32.6938 27.8018 32.8101 27.7748 33.5079 28.2965C35.5116 29.7895 36.5762 31.8313 36.7193 34.4307C36.8892 37.4078 35.458 40.331 32.7475 42.5526C30.6811 44.2526 28.6684 45.116 25.5643 45.6467C24.2046 45.8806 19.8571 45.8806 18.4616 45.6467C14.6777 45.0081 11.7972 43.614 9.58768 41.3474C8.32637 40.0342 7.56601 38.9548 6.72513 37.2639C5.98266 35.7798 5.24018 33.4233 4.82869 31.2826C4.42615 29.1509 4.24724 26.7044 4.30986 24.222C4.39037 21.2358 4.62295 19.4999 5.27597 16.8286C5.91109 14.2112 7.13662 11.6298 8.55895 9.86688C9.92761 8.16694 11.4036 6.97967 13.3627 6.01727C14.5882 5.41464 14.9997 5.25274 16.0016 4.98291C16.2699 4.91096 16.7172 4.79403 16.9856 4.72207C17.7459 4.5152 19.2219 4.30833 20.6264 4.20939C22.6481 4.07447 25.3943 4.30833 27.0492 4.75805C27.246 4.80302 27.5502 4.88397 27.7201 4.91995C28.4447 5.08185 29.7776 5.59453 30.7974 6.09822C33.15 7.27649 35.0644 8.99442 36.5314 11.252C37.0413 12.0435 38.0074 13.9234 38.0074 14.1212C38.0074 14.1932 38.0432 14.2831 38.0879 14.3281C38.1863 14.445 38.5799 15.5154 38.7678 16.19C38.8483 16.4778 38.9467 16.7296 38.9914 16.7566C39.063 16.8016 40.539 16.4328 42.2118 15.9651L42.9722 15.7492L42.999 15.4254C43.0258 15.1016 42.507 13.3927 42.1045 12.5022C40.3154 8.47275 38.4368 5.99928 35.4132 3.69671C33.481 2.23062 30.5916 0.953409 27.7649 0.314805L26.5125 0.0359777L22.0398 0.0179888L17.567 0L16.2699 0.287822ZM26.2889 25.796C27.6933 25.9759 28.3016 26.0928 28.4 26.2187C28.5789 26.4256 28.3195 28.2335 27.9527 29.4028C27.2103 31.7323 25.9489 33.0635 23.9183 33.6302C22.8896 33.918 20.9126 33.918 19.8929 33.6302C17.6297 33.0005 16.3862 31.3995 16.6457 29.4657C16.8156 28.2065 17.5939 27.2441 18.9715 26.5695C19.8481 26.1378 20.2328 26.0299 21.4583 25.841C22.4065 25.6971 25.2691 25.6701 26.2889 25.796Z" fill="black"/>
</svg>
